<svg xmlns="http://www.w3.org/2000/svg" viewBox="0 0 248 48" role="img" aria-label="Bententrade">
  <defs>
    <linearGradient id="bttCopper" x1="0" y1="0" x2="1" y2="1">
      <stop offset="0" stop-color="#e27c3d"/>
      <stop offset="1" stop-color="#bd7335"/>
    </linearGradient>
  </defs>
  <rect x="0.75" y="0.75" width="46.5" height="46.5" rx="13" fill="url(#bttCopper)"/>
  <path d="M15 13.5h9.4c3.9 0 6.4 2 6.4 5.2 0 2.1-1.1 3.6-3 4.3 2.4.6 3.9 2.3 3.9 4.9 0 3.5-2.7 5.6-7 5.6H15V13.5Zm8.7 8.1c1.7 0 2.7-.8 2.7-2.2s-1-2.1-2.7-2.1h-4.2v4.3h4.2Zm.5 8.4c1.8 0 2.9-.9 2.9-2.4s-1.1-2.4-2.9-2.4h-4.7v4.8h4.7Z" fill="#fff"/>
  <text x="60" y="31" font-family="'Hanken Grotesque',system-ui,Arial,sans-serif" font-size="22" font-weight="800" letter-spacing="0.5" fill="#bd7335">BENTENTRADE</text>
</svg>
